<svg width="129" height="16" viewBox="0 0 129 16" fill="none" xmlns="http://www.w3.org/2000/svg">
<path d="M8.72656 8.67188H14.5625V9.28125H12.8047V15L10.8125 14.2734C10.7344 14.3359 10.6328 14.3984 10.5078 14.4609C9.55469 14.9766 8.49219 15.2344 7.32031 15.2344C5.71094 15.2344 4.25781 14.7344 2.96094 13.7344C1.17969 12.3281 0.289062 10.375 0.289062 7.875C0.289062 5.6875 1.02344 3.91406 2.49219 2.55469C3.83594 1.32031 5.44531 0.703125 7.32031 0.703125C8.42969 0.703125 9.47656 0.945313 10.4609 1.42969L12.5 1.00781L12.6172 5.55469H12.0078C11.6328 4.25781 11.2109 3.30469 10.7422 2.69531C10.0234 1.80469 8.85938 1.35938 7.25 1.35938C6.8125 1.35938 6.39844 1.40625 6.00781 1.5C3.75781 2.09375 2.63281 4.25 2.63281 7.96875C2.64844 12.3125 4.21094 14.5 7.32031 14.5312C7.44531 14.5312 7.57031 14.5234 7.69531 14.5078C9.00781 14.3984 10.0547 13.875 10.8359 12.9375V9.28125H8.72656V8.67188ZM21.9453 15H16.2031V14.3906H18.0781V1.54688H16.2031V0.9375H23.1406C24.3594 0.9375 25.3828 1.21875 26.2109 1.78125C27.2266 2.48438 27.7344 3.42188 27.7344 4.59375C27.7344 5.07812 27.6328 5.55469 27.4297 6.02344C26.8828 7.21094 25.8672 7.98438 24.3828 8.34375L28.1562 14.3906H29.0469C29.1562 14.3906 29.25 14.3984 29.3281 14.4141C29.5156 14.4609 29.6094 14.6562 29.6094 15H26.0703L22.3203 8.55469H20.0938V14.3906H21.9453V15ZM22.4375 1.54688H20.0938V7.875H22.5078C23.2109 7.875 23.8281 7.66406 24.3594 7.24219C25.1406 6.61719 25.5312 5.74219 25.5312 4.61719C25.5312 4.11719 25.4297 3.64062 25.2266 3.1875C24.7109 2.09375 23.7812 1.54688 22.4375 1.54688ZM41.4688 5.15625H41L40.6719 4.05469C40.6562 3.99219 40.6328 3.91406 40.6016 3.82031C40.1172 2.30469 39.3125 1.54688 38.1875 1.54688H34.4375V7.40625H39.2656V8.08594H34.4375V14.3906H38.1875C38.4531 14.3906 38.7031 14.3516 38.9375 14.2734C39.7031 14.0078 40.2812 13.2109 40.6719 11.8828L41 10.7812H41.4688L41.3516 15H30.5469V14.3906H32.4219V1.54688H30.5469V0.9375H41.3516L41.4688 5.15625ZM54.5 5.15625H54.0312L53.7031 4.05469C53.6875 3.99219 53.6641 3.91406 53.6328 3.82031C53.1484 2.30469 52.3438 1.54688 51.2188 1.54688H47.4688V7.40625H52.2969V8.08594H47.4688V14.3906H51.2188C51.4844 14.3906 51.7344 14.3516 51.9688 14.2734C52.7344 14.0078 53.3125 13.2109 53.7031 11.8828L54.0312 10.7812H54.5L54.3828 15H43.5781V14.3906H45.4531V1.54688H43.5781V0.9375H54.3828L54.5 5.15625ZM66.3125 1.54688V0.9375H71.1172V1.54688H69.2422V14.8828L68.1641 15.1172L58.9531 3.53906V14.3906H60.3359C60.4141 14.3906 60.4922 14.3984 60.5703 14.4141C60.8203 14.4609 60.9453 14.6562 60.9453 15H56.1406V14.3906H58.0156V1.54688H56.1406V0.9375H59.3984L68.3047 12.0469V1.54688H66.3125ZM89.6562 0.9375V1.54688H87.7812V14.3906H89.0469C89.125 14.3906 89.2031 14.3984 89.2812 14.4141C89.5312 14.4609 89.6562 14.6562 89.6562 15H84.0312V14.3906H85.9062V3.04688L80.4922 15.1172H80L74.8672 4.3125V14.3906H76.1328C76.2109 14.3906 76.2891 14.3984 76.3672 14.4141C76.6172 14.4609 76.7422 14.6562 76.7422 15H72.0547V14.3906H73.9297V1.54688H72.0547V0.9375H75.4062L80.8438 12.3984L85.9062 0.9375H89.6562ZM97.0391 15H91.2969V14.3906H93.1719V1.54688H91.2969V0.9375H97.0391V1.54688H95.1875V14.3906H96.4297C96.5078 14.3906 96.5859 14.3984 96.6641 14.4141C96.9141 14.4609 97.0391 14.6562 97.0391 15ZM108.617 1.54688V0.9375H113.422V1.54688H111.547V14.8828L110.469 15.1172L101.258 3.53906V14.3906H102.641C102.719 14.3906 102.797 14.3984 102.875 14.4141C103.125 14.4609 103.25 14.6562 103.25 15H98.4453V14.3906H100.32V1.54688H98.4453V0.9375H101.703L110.609 12.0469V1.54688H108.617ZM114.594 0.9375H121.133C122.727 0.9375 124.125 1.3125 125.328 2.0625C127.297 3.3125 128.281 5.28125 128.281 7.96875C128.281 10.0469 127.609 11.7344 126.266 13.0312C124.906 14.3438 123.172 15 121.062 15H114.594V14.3906H116.469V1.54688H114.594V0.9375ZM121.062 1.54688H118.484V14.3906H121.133C121.445 14.3906 121.75 14.3672 122.047 14.3203C124.703 13.9141 126.031 11.7656 126.031 7.875C126.031 6.73438 125.914 5.75 125.68 4.92188C125.07 2.67188 123.531 1.54688 121.062 1.54688Z" fill="#1E1E1E"/>
</svg>
